<svg width="119" height="32" viewBox="0 0 119 32" fill="none" xmlns="http://www.w3.org/2000/svg"><g clip-path="url(#sfg1d8cd25e)"><path d="M93.699 24.192h2.16a.177.177 0 0 0 .178-.176V12.873a.177.177 0 0 0-.179-.176h-2.1a.178.178 0 0 0-.179.176v11.202c0 .065.054.117.12.117zm6.486-10.057v-1.262a.177.177 0 0 0-.179-.176h-2.1a.177.177 0 0 0-.18.176v11.143c0 .097.081.176.18.176h2.1a.177.177 0 0 0 .179-.176v-5.863c0-1.181.248-2.01.744-2.489.496-.477 1.225-.716 2.189-.716h.446a.177.177 0 0 0 .179-.176v-2.133a.178.178 0 0 0-.184-.177c-.742.023-1.389.187-1.94.492-.538.298-.98.702-1.325 1.212-.033.048-.109.028-.109-.03zm-30.135.678c2.245 0 4.023 1.987 3.594 4.256-.27 1.425-1.441 2.57-2.898 2.834-2.32.42-4.352-1.319-4.352-3.513 0-1.973 1.64-3.577 3.657-3.577zm0-2.385c-3.594 0-6.462 3.044-6.056 6.64.309 2.733 2.568 4.943 5.363 5.245 3.677.397 6.789-2.408 6.789-5.924 0-3.292-2.729-5.96-6.095-5.96zm22.311-3.033V7.43a.18.18 0 0 0-.17-.177c-1.618-.07-3.245.278-4.09 1.047-.874.796-1.311 1.96-1.311 3.491v.905h-1.925c-.1 0-.18.079-.18.176v1.899c0 .097.08.175.18.175h1.919v9.07c0 .096.08.175.18.175h2.12c.1 0 .18-.079.18-.176v-9.069h2.91a.177.177 0 0 0 .179-.175v-1.9a.177.177 0 0 0-.18-.175h-2.92v-.905c0-1.576 1.235-2.317 2.916-2.223a.179.179 0 0 0 .193-.174zm2.455.82c.83 0 1.503-.658 1.503-1.47 0-.812-.673-1.47-1.503-1.47-.83 0-1.503.658-1.503 1.47 0 .812.673 1.47 1.503 1.47zM62.32 15.044a5.452 5.452 0 0 0-2.185-2.024 6.316 6.316 0 0 0-2.907-.691 6.206 6.206 0 0 0-2.872.707c-.29.151-.562.325-.816.521-.039.03-.095.004-.095-.045v-.806a.178.178 0 0 0-.18-.175h-2.099a.178.178 0 0 0-.18.175V28.56c0 .097.08.175.18.175h2.103a.174.174 0 0 0 .176-.172v-6.047c0-.054.067-.078.104-.037.43.481.97.887 1.621 1.219.709.36 1.52.54 2.432.537l.12-.004a6.062 6.062 0 0 0 2.413-.702c.904-.482 1.632-1.184 2.184-2.105.552-.921.828-1.993.828-3.214 0-1.22-.276-2.276-.828-3.165zm-5.074 6.752c-1.956 0-3.541-1.601-3.541-3.576 0-1.976 1.585-3.577 3.54-3.577 1.957 0 3.542 1.601 3.542 3.576 0 1.976-1.585 3.577-3.541 3.577zm-8.758-5.053c-.642-.741-1.582-1.329-2.872-1.797l-1.682-.617c-1.683-.61-2.538-1.14-2.538-2.351 0-1.244 1.327-1.894 2.638-1.894.76 0 1.44.185 2.061.563.542.33 1.229.327 1.754-.029l.92-.623c.207-.14.222-.263.151-.34-1.215-1.32-2.933-2.045-4.862-2.045-1.518 0-2.883.433-3.843 1.218-1.004.821-1.535 1.974-1.535 3.333 0 2.159 1.243 3.605 3.912 4.552l1.823.64c1.642.59 2.374 1.358 2.374 2.488 0 1.196-1.113 2.032-2.708 2.032-1.111 0-2.12-.363-2.934-1.039a1.623 1.623 0 0 0-1.947-.115l-.782.53c-.227.154-.26.294-.192.397 1.092 1.672 3.273 2.7 5.762 2.7 1.6 0 2.975-.44 3.974-1.275 1.01-.843 1.544-2.015 1.544-3.39.011-1.175-.322-2.136-1.018-2.938zm35.082-1.796a.177.177 0 0 0 .179-.175v-1.895a.177.177 0 0 0-.18-.175h-2.918l.001-2.958a.174.174 0 0 0-.176-.172h-2.128a.174.174 0 0 0-.175.172l-.002 2.958h-1.918c-.1 0-.18.079-.18.176v1.894c0 .097.08.175.18.175h1.918v6.002c0 1.143.295 1.968.884 2.477.59.508 1.438.762 2.545.762h1.972c.1 0 .18-.079.18-.176v-1.66a.178.178 0 0 0-.18-.175h-1.54c-.504 0-.86-.096-1.068-.286-.209-.19-.313-.505-.313-.942v-6.001h2.918zm26.457 7.163c-.959 0-1.77-.232-2.434-.692-.665-.461-1.09-1.329-1.274-2.19h9.066c.09 0 .167-.068.179-.155.047-.352.071-.64.071-.865 0-1.244-.283-1.996-.916-3.106-.19-.333-.444-.633-.718-.927-1.09-1.162-2.484-1.745-4.184-1.745-1.792 0-3.259.571-4.402 1.711-1.144 1.142-1.716 2.559-1.716 4.25 0 1.723.579 3.148 1.739 4.273 1.158 1.126 2.68 1.688 4.565 1.688 1.983 0 3.533-.648 4.656-1.939a.175.175 0 0 0-.017-.245l-.55-.487a1.59 1.59 0 0 0-1.923-.148c-.578.384-1.292.576-2.143.576h.001zm-2.55-6.71c.618-.499 1.391-.748 2.317-.748.819 0 1.534.234 2.144.702.598.46.984.932 1.159 1.826l.011.054h-6.813c.169-.862.564-1.336 1.182-1.834zm-80.6.216c-.272-5.547-4.781-10.101-10.39-10.277-5.966-.22-10.954 4.556-11.13 10.467-.196 4.998 3.145 9.566 8.009 10.863v-1.378a2.912 2.912 0 0 0-1.143-2.125l-.619-.467a7.965 7.965 0 0 1-1.614-1.507 7.976 7.976 0 0 1-1.763-5.287c.061-2.653 1.563-5.172 3.79-6.525a7.886 7.886 0 0 1 8.203 0c2.227 1.352 3.73 3.872 3.79 6.525a7.977 7.977 0 0 1-1.762 5.287 7.966 7.966 0 0 1-1.624 1.513l-.612.463a2.912 2.912 0 0 0-1.14 2.132v1.37c4.947-1.328 8.272-5.975 8.005-11.054z" fill="#333C66"></path><path d="M16.119 20.136c2.301 0 4.166-1.852 4.166-4.136s-1.865-4.136-4.166-4.136-4.167 1.852-4.167 4.136 1.866 4.136 4.167 4.136z" fill="#E94165"></path><path d="M16.119 2.92c3.53 0 6.846 1.363 9.34 3.838A12.937 12.937 0 0 1 29.317 16c0 3.49-1.37 6.772-3.858 9.242a13.171 13.171 0 0 1-9.34 3.838 13.17 13.17 0 0 1-9.34-3.838A12.937 12.937 0 0 1 2.92 16c0-3.49 1.37-6.772 3.858-9.242a13.171 13.171 0 0 1 9.34-3.838zm0-2.92C7.217 0 0 7.163 0 16s7.217 16 16.119 16c8.902 0 16.118-7.163 16.118-16S25.021 0 16.12 0zm100.963 10.706v.308h-.476v1.358h-.333v-1.358h-.484v-.308h1.293zm1.591 0H119v1.666h-.334v-1.108l-.509.808h-.033l-.509-.806v1.106h-.333v-1.666h.326l.532.845.533-.845z" fill="#333C66"></path></g><defs><clipPath id="sfg1d8cd25e"><path fill="#fff" d="M0 0h119v32H0z"></path></clipPath></defs></svg>