<?xml version="1.0" encoding="UTF-8"?>
<svg id="Layer_1" data-name="Layer 1" xmlns="http://www.w3.org/2000/svg" viewBox="0 0 328.71 89">
  <defs>
    <style>
      .cls-1 {
        fill: #333c66;
      }

      .cls-2 {
        fill: #e94165;
      }
    </style>
  </defs>
  <g>
    <path class="cls-1" d="M260.66,67.65h6.01c.28,0,.5-.22.5-.49v-30.99c0-.27-.22-.49-.5-.49h-5.84c-.28,0-.5.22-.5.49v31.16c0,.18.15.33.33.33Z"/>
    <path class="cls-1" d="M278.71,39.68v-3.51c0-.27-.22-.49-.5-.49h-5.84c-.28,0-.5.22-.5.49v30.99c0,.27.22.49.5.49h5.84c.28,0,.5-.22.5-.49v-16.31c0-3.28.69-5.59,2.07-6.92,1.38-1.33,3.41-1.99,6.09-1.99h1.24c.28,0,.5-.22.5-.49v-5.93c0-.27-.23-.5-.51-.49-2.06.06-3.86.52-5.4,1.37-1.5.83-2.73,1.95-3.69,3.37-.09.14-.3.08-.3-.08Z"/>
    <path class="cls-1" d="M194.88,41.57c6.24,0,11.19,5.53,9.99,11.84-.75,3.96-4.01,7.15-8.06,7.88-6.46,1.17-12.11-3.67-12.11-9.77,0-5.49,4.56-9.95,10.17-9.95M194.88,34.94c-10,0-17.98,8.46-16.85,18.47.86,7.6,7.14,13.75,14.92,14.59,10.23,1.1,18.89-6.7,18.89-16.47,0-9.16-7.59-16.58-16.96-16.58h0Z"/>
    <path class="cls-1" d="M256.94,26.5v-5.46c0-.26-.21-.48-.48-.49-4.5-.2-9.02.77-11.37,2.91-2.43,2.21-3.65,5.45-3.65,9.71v2.52h-5.36c-.28,0-.5.22-.5.49v5.28c0,.27.22.49.5.49h5.34v25.22c0,.27.22.49.5.49h5.9c.28,0,.5-.22.5-.49v-25.22h8.09c.28,0,.5-.22.5-.49v-5.28c0-.27-.22-.49-.5-.49h-8.12v-2.52c0-4.38,3.43-6.45,8.11-6.18.29.02.54-.2.54-.49Z"/>
    <ellipse class="cls-1" cx="263.77" cy="24.69" rx="4.18" ry="4.09"/>
    <path class="cls-1" d="M173.37,42.21c-1.54-2.47-3.56-4.35-6.08-5.63-2.52-1.28-5.21-1.92-8.09-1.92-1.21,0-2.39.13-3.54.37-1.53.32-3.02.85-4.45,1.6-.81.42-1.56.91-2.27,1.45-.11.08-.27.01-.27-.12v-2.24c0-.27-.22-.49-.5-.49h-5.84c-.28,0-.5.22-.5.49v44.09c0,.27.22.49.5.49h5.85c.27,0,.49-.21.49-.48v-16.82c0-.15.19-.22.29-.1,1.2,1.34,2.7,2.47,4.51,3.39,1.97,1,4.23,1.5,6.77,1.5h.33c2.36-.19,4.6-.84,6.71-1.97,2.52-1.34,4.54-3.29,6.08-5.85,1.53-2.56,2.3-5.54,2.3-8.94s-.77-6.33-2.3-8.8ZM159.25,60.99c-5.44,0-9.85-4.45-9.85-9.95s4.41-9.95,9.85-9.95,9.85,4.45,9.85,9.95-4.41,9.95-9.85,9.95Z"/>
    <path class="cls-1" d="M134.89,46.93c-1.79-2.06-4.4-3.69-7.99-5l-4.68-1.72c-4.68-1.69-7.06-3.17-7.06-6.54s3.69-5.27,7.34-5.27c2.11,0,4.01.52,5.73,1.57,1.51.92,3.42.91,4.88-.08l2.56-1.73c.58-.39.62-.73.42-.94-3.38-3.67-8.16-5.69-13.53-5.69-4.22,0-8.02,1.2-10.69,3.39-2.79,2.28-4.27,5.49-4.27,9.27,0,6,3.46,10.03,10.88,12.66l5.07,1.78c4.57,1.64,6.6,3.78,6.6,6.92,0,3.33-3.1,5.65-7.53,5.65-3.09,0-5.9-1.01-8.16-2.89-1.54-1.28-3.75-1.45-5.42-.32l-2.18,1.47c-.63.43-.72.82-.53,1.11,3.04,4.65,9.11,7.51,16.03,7.51,4.45,0,8.28-1.23,11.06-3.55,2.81-2.35,4.3-5.61,4.3-9.43.03-3.27-.89-5.94-2.83-8.17Z"/>
    <path class="cls-1" d="M232.48,41.94c.28,0,.5-.22.5-.49v-5.27c0-.27-.22-.49-.5-.49h-8.12v-8.23c0-.26-.22-.48-.49-.48h-5.92c-.27,0-.49.21-.49.48v8.23h-5.34c-.28,0-.5.22-.5.49v5.27c0,.27.22.49.5.49h5.34v16.69c0,3.18.82,5.48,2.46,6.89,1.64,1.41,4,2.12,7.08,2.12h5.49c.28,0,.5-.22.5-.49v-4.62c0-.27-.22-.49-.5-.49h-4.29c-1.4,0-2.39-.26-2.97-.8-.58-.53-.87-1.4-.87-2.62v-16.69h8.12Z"/>
    <path class="cls-1" d="M306.09,61.86c-2.67,0-4.92-.64-6.77-1.92-1.85-1.28-3.03-3.7-3.54-6.09h25.22c.25,0,.46-.19.5-.43.13-.98.2-1.78.2-2.41,0-3.46-.79-5.55-2.55-8.64-.53-.93-1.23-1.76-2-2.58-3.03-3.23-6.91-4.85-11.64-4.85-4.99,0-9.07,1.59-12.25,4.76-3.18,3.18-4.77,7.12-4.77,11.82s1.61,8.75,4.84,11.88c3.22,3.13,7.46,4.7,12.7,4.7,5.52,0,9.83-1.8,12.95-5.39.17-.2.15-.5-.05-.68l-1.53-1.35c-1.48-1.31-3.7-1.51-5.35-.41s-3.6,1.6-5.96,1.6ZM298.99,43.2c1.72-1.39,3.87-2.08,6.45-2.08,2.28,0,4.27.65,5.97,1.95,1.66,1.28,2.74,2.59,3.22,5.08,0,.05.02.1.03.15h-18.95c.47-2.4,1.57-3.71,3.29-5.1Z"/>
  </g>
  <g>
    <path class="cls-1" d="M74.77,43.8c-.76-15.43-13.3-28.09-28.9-28.58-16.6-.61-30.47,12.67-30.96,29.11-.54,13.9,8.75,26.61,22.28,30.22v-3.83c-.14-2.3-1.3-4.47-3.18-5.91-.65-.49-1.12-.85-1.72-1.3-1.62-1.13-3.13-2.52-4.49-4.19-3.31-4.05-5.13-9.45-4.9-14.71.17-7.38,4.35-14.38,10.54-18.15,6.94-4.27,15.87-4.27,22.82,0,6.19,3.76,10.38,10.77,10.54,18.15.22,5.24-1.6,10.66-4.9,14.7-1.37,1.67-2.87,3.07-4.52,4.21-.58.45-1.07.81-1.7,1.29-1.87,1.44-3.03,3.6-3.17,5.93,0,.04,0,3.77,0,3.81,13.76-3.69,23.01-16.62,22.27-30.74Z"/>
    <path class="cls-2" d="M44.84,33.37c-6.39,0-11.59,5.16-11.59,11.5s5.2,11.5,11.59,11.5,11.59-5.16,11.59-11.5-5.2-11.5-11.59-11.5Z"/>
    <path class="cls-1" d="M44.84,8.49c9.82,0,19.05,3.79,25.98,10.68,6.92,6.87,10.73,16,10.73,25.7s-3.81,18.83-10.73,25.7c-6.94,6.88-16.17,10.68-25.98,10.68s-19.05-3.79-25.98-10.68c-6.92-6.87-10.73-16-10.73-25.7s3.81-18.83,10.73-25.7c6.94-6.88,16.17-10.68,25.98-10.68M44.84.37C20.08.37,0,20.29,0,44.87s20.08,44.5,44.84,44.5,44.84-19.92,44.84-44.5S69.61.37,44.84.37h0Z"/>
  </g>
  <path class="cls-1" d="M323,34.68c-.57,0-1.12-.11-1.63-.33-.52-.22-.97-.52-1.35-.91-.39-.39-.69-.84-.91-1.35-.22-.52-.33-1.06-.33-1.63s.11-1.15.33-1.66c.22-.51.52-.96.91-1.34.39-.39.84-.69,1.35-.91s1.06-.33,1.63-.33,1.15.11,1.66.33.96.52,1.34.91c.39.39.69.83.91,1.34s.33,1.06.33,1.66-.11,1.12-.33,1.63-.52.97-.91,1.35c-.39.39-.83.69-1.34.91-.51.22-1.06.33-1.66.33ZM323,33.8c.66,0,1.23-.14,1.73-.42.5-.28.89-.67,1.17-1.18.28-.51.42-1.09.42-1.74s-.14-1.25-.42-1.75c-.28-.5-.67-.89-1.17-1.18-.5-.29-1.08-.43-1.73-.43s-1.22.14-1.72.43c-.5.29-.89.68-1.17,1.18s-.42,1.08-.42,1.75.14,1.24.42,1.74c.28.51.67.9,1.17,1.18.5.28,1.07.42,1.72.42ZM321.42,32.68v-4.56h1.64c.47,0,.85.13,1.16.4.3.27.45.62.45,1.06,0,.29-.08.55-.24.78-.16.23-.38.4-.65.52l1.08,1.81h-.92l-.94-1.66h-.77v1.66h-.81ZM322.24,30.27h.86c.21,0,.38-.06.52-.2.14-.13.21-.3.21-.51,0-.22-.07-.39-.22-.52-.15-.13-.34-.2-.58-.2h-.8v1.42Z"/>
</svg>